# xmcd CD database file
#
# Track frame offsets:
#	150
#	23364
#	58674
#	89211
#	110731
#	140548
#	165093
#
# Disc length: 2958 seconds
#
# Revision: 0
# Processed by: cddbd v1.5.2PL0 Copyright (c) Steve Scherf et al.
# Submitted via: CDex 1.70beta3
#
DISCID=550b8c07
DTITLE=Matthew Shipp Trio - Conduct of Jazz
DYEAR=2015
DGENRE=Jazz
TTITLE0=Instinctive Touch
TTITLE1=The Conduct of Jazz
TTITLE2=Ball in Space
TTITLE3=Primary Form
TTITLE4=Blue Abyss
TTITLE5=Stream of Light
TTITLE6=The Bridge Across
EXTD=YEAR: 2015
EXTT0=
EXTT1=
EXTT2=
EXTT3=
EXTT4=
EXTT5=
EXTT6=
PLAYORDER=
